<svg xmlns="http://www.w3.org/2000/svg" viewBox="0 0 920 120" width="920" height="120">
  <defs>
    <linearGradient id="frame" x1="0%" y1="0%" x2="100%" y2="100%">
      <stop offset="0%" style="stop-color:#ff2d95"/>
      <stop offset="50%" style="stop-color:#c44cff"/>
      <stop offset="100%" style="stop-color:#7c3aed"/>
    </linearGradient>
    <linearGradient id="chip" x1="0%" y1="0%" x2="100%" y2="0%">
      <stop offset="0%" style="stop-color:#ff2d95"/>
      <stop offset="100%" style="stop-color:#c44cff"/>
    </linearGradient>
    <filter id="soft">
      <feGaussianBlur stdDeviation="6" result="b"/>
      <feMerge><feMergeNode in="b"/><feMergeNode in="SourceGraphic"/></feMerge>
    </filter>
  </defs>
  <rect width="920" height="120" fill="#0a0a10" rx="20"/>
  <rect x="16" y="16" width="888" height="88" fill="none" stroke="url(#frame)" stroke-width="1" opacity="0.45" rx="16"/>
  <!-- row 1 -->
  <rect x="36" y="36" width="76" height="26" rx="8" fill="#12101c" stroke="url(#chip)" stroke-width="1.2"/>
  <text x="74" y="53" text-anchor="middle" fill="#f5f3ff" font-family="system-ui, sans-serif" font-size="10" font-weight="600">HTML</text>
  <rect x="120" y="36" width="72" height="26" rx="8" fill="#12101c" stroke="url(#chip)" stroke-width="1.2"/>
  <text x="156" y="53" text-anchor="middle" fill="#f5f3ff" font-family="system-ui, sans-serif" font-size="10" font-weight="600">CSS</text>
  <rect x="200" y="36" width="112" height="26" rx="8" fill="#12101c" stroke="url(#chip)" stroke-width="1.2"/>
  <text x="256" y="53" text-anchor="middle" fill="#f5f3ff" font-family="system-ui, sans-serif" font-size="10" font-weight="600">JavaScript</text>
  <rect x="320" y="36" width="64" height="26" rx="8" fill="#12101c" stroke="url(#chip)" stroke-width="1.2"/>
  <text x="352" y="53" text-anchor="middle" fill="#f5f3ff" font-family="system-ui, sans-serif" font-size="10" font-weight="600">PHP</text>
  <rect x="392" y="36" width="72" height="26" rx="8" fill="#12101c" stroke="url(#chip)" stroke-width="1.2"/>
  <text x="428" y="53" text-anchor="middle" fill="#f5f3ff" font-family="system-ui, sans-serif" font-size="10" font-weight="600">MySQL</text>
  <rect x="472" y="36" width="88" height="26" rx="8" fill="#12101c" stroke="url(#chip)" stroke-width="1.2"/>
  <text x="516" y="53" text-anchor="middle" fill="#f5f3ff" font-family="system-ui, sans-serif" font-size="10" font-weight="600">Tailwind</text>
  <rect x="568" y="36" width="112" height="26" rx="8" fill="#12101c" stroke="url(#chip)" stroke-width="1.2"/>
  <text x="624" y="53" text-anchor="middle" fill="#f5f3ff" font-family="system-ui, sans-serif" font-size="10" font-weight="600">WordPress</text>
  <rect x="688" y="36" width="88" height="26" rx="8" fill="#12101c" stroke="url(#chip)" stroke-width="1.2"/>
  <text x="732" y="53" text-anchor="middle" fill="#f5f3ff" font-family="system-ui, sans-serif" font-size="10" font-weight="600">Shopify</text>
  <rect x="784" y="36" width="96" height="26" rx="8" fill="#12101c" stroke="url(#chip)" stroke-width="1.2"/>
  <text x="832" y="53" text-anchor="middle" fill="#f5f3ff" font-family="system-ui, sans-serif" font-size="10" font-weight="600">Liquid</text>
  <!-- row 2 -->
  <rect x="36" y="70" width="56" height="26" rx="8" fill="#12101c" stroke="url(#chip)" stroke-width="1.2"/>
  <text x="64" y="87" text-anchor="middle" fill="#f5f3ff" font-family="system-ui, sans-serif" font-size="10" font-weight="600">Git</text>
  <rect x="100" y="70" width="72" height="26" rx="8" fill="#12101c" stroke="url(#chip)" stroke-width="1.2"/>
  <text x="136" y="87" text-anchor="middle" fill="#f5f3ff" font-family="system-ui, sans-serif" font-size="10" font-weight="600">GitHub</text>
  <rect x="180" y="70" width="88" height="26" rx="8" fill="#12101c" stroke="url(#chip)" stroke-width="1.2"/>
  <text x="224" y="87" text-anchor="middle" fill="#f5f3ff" font-family="system-ui, sans-serif" font-size="10" font-weight="600">VS Code</text>
  <rect x="276" y="70" width="72" height="26" rx="8" fill="#12101c" stroke="url(#chip)" stroke-width="1.2"/>
  <text x="312" y="87" text-anchor="middle" fill="#f5f3ff" font-family="system-ui, sans-serif" font-size="10" font-weight="600">Sass</text>
</svg>
